<?xml version="1.0" encoding="UTF-8" standalone="no"?>
<!-- Generator: visioncortex VTracer 0.6.4 -->

<svg
   version="1.1"
   width="1024"
   height="1024"
   id="svg1023"
   xmlns="http://www.w3.org/2000/svg"
   xmlns:svg="http://www.w3.org/2000/svg">
  <defs
     id="defs1023" />
  <path
     d="m 544.0732,122.59683 c 54.87803,9.52355 101.73325,46.0903 132.78367,91.97554 4.1467,55.53455 86.7113,35.64329 94.46642,93.93895 17.47107,47.88573 0.095,112.37615 -49.15649,132.7139 -50.45948,-3.18051 -33.26413,61.66986 -49.739,92.29008 -19.58028,33.34579 -26.38492,64.39155 5.54297,91.9948 33.8308,31.77607 81.78048,45.48154 122.43098,67.6637 43.53564,9.71808 73.53211,51.48318 71.04398,96.21257 14.72259,79.18931 31.66632,158.00868 43.71242,237.67393 -92.18856,5.1934 -184.70066,0.9565 -277.04191,2.2667 -171.24015,-0.029 -342.48034,-0.015 -513.72048,-0.102 -14.02117,-36.0397 10.00991,-75.74302 11.10682,-112.83699 10.94262,-58.88363 21.71648,-118.20647 33.50613,-176.49899 21.23305,-42.12089 74.49798,-45.97512 110.52939,-69.75882 40.63681,-17.15465 116.48858,-55.00404 89.87345,-106.31844 -16.10328,-36.63811 -18.23905,-75.33959 -29.2796,-112.09248 -41.6279,-8.90432 -83.59091,-38.96935 -85.43746,-86.5947 -7.76687,-47.5097 17.71242,-104.03972 68.05678,-112.74305 38.67388,-7.88392 38.78347,-64.55586 74.30921,-83.52999 39.33663,-36.52334 93.71762,-57.29568 147.01272,-46.25471 z M 339.01203,250.47777 c -2.10587,5.96246 8.5069,-2.32303 0,0 z m -70.38435,154.90616 1.00549,2.05174 z m 69.37886,42.06061 3.33061,0.84953 z m 10.0549,36.93128 c -2.77121,8.72164 4.35204,3.97863 0,0 z m 17.09334,65.65558 c -3.85034,9.05054 6.25559,1.18809 0,0 z m 8.04393,17.43977 1.00549,2.05174 z m 20.10981,30.77606 c -35.7399,31.1051 7.05353,75.04085 12.41408,110.83988 1.96552,20.05773 24.60571,61.10823 35.84947,21.49717 29.70145,-20.05562 76.99841,-59.33341 19.09591,-73.36094 -25.48261,-15.96241 -48.308,-35.60273 -67.35946,-58.97611 z m 244.33422,0 c -22.08525,37.16699 -80.4491,60.32719 -98.24877,83.88262 22.58188,19.34916 51.26687,62.9698 72.45732,64.33436 15.69712,-40.86088 37.12318,-84.16874 42.0929,-126.33657 -3.41648,-8.62814 -9.96357,-15.40167 -16.30145,-21.88041 z m -75.41179,131.31119 c -35.91982,39.94471 -8.06288,94.68546 -3.77425,140.73576 14.81035,26.09186 24.55666,-58.62861 37.33659,-75.64649 21.88301,-34.08857 -19.19627,-41.57684 -33.56234,-65.08927 z m -99.98004,7.37968 c -40.30386,18.42274 -31.26446,65.86931 -12.46246,96.57107 3.69999,19.50537 21.9147,73.4448 24.63632,23.67903 3.30529,-34.05566 20.09702,-68.92107 8.14429,-102.29349 -3.40515,-8.14721 -9.80812,-20.14374 -20.31815,-17.95661 z m -44.81062,2.879 1.0055,2.05174 z m 62.34042,11.28456 1.0055,2.05173 z m 6.03295,12.31042 1.00549,2.05174 z m 0,26.67258 0.87447,2.6766 z m -1.0055,5.12934 0.87448,2.6766 z"
     fill="#131f29"
     id="path1-5"
     style="display:inline;stroke-width:1.01563" />
  <path
     d="m 544.29834,143.58765 c 54.31308,9.23029 101.29252,44.91783 132.05859,89.65625 3.14911,52.55454 83.44301,34.67124 92.30457,87.05808 24.5472,53.90762 -5.33942,132.63883 -68.74026,139.2703 -29.30886,31.2923 -15.67281,83.85647 -43.21653,118.90953 -8.6021,52.91938 50.21883,77.39003 88.74035,96.42648 43.84466,24.27212 110.01077,31.47891 120.75517,90.58075 13.07729,86.92496 34.158,172.68793 47.1567,259.75486 -144.98422,5.2411 -290.13317,0.6496 -435.19009,2.1918 -117.08475,-0.01 -234.1695,-0.019 -351.25423,-0.074 -13.19863,-42.29651 12.28603,-83.96772 14.32056,-126.29473 10.2321,-52.60589 17.66159,-105.85092 31.88593,-157.60367 27.25075,-46.12516 87.94738,-48.17955 129.63871,-75.38525 35.23071,-16.49536 82.23443,-45.96601 72.23676,-91.41164 -30.36575,-32.77535 -8.73653,-89.23327 -45.70837,-115.80056 -50.104,-10.69382 -84.34715,-63.28941 -72.70069,-113.43221 1.79787,-53.30112 51.85295,-71.55918 90.42652,-88.95587 17.37075,-36.43452 40.97685,-68.678 76.54966,-89.30466 35.23438,-22.89091 79.09246,-34.39528 120.73665,-25.58526 z M 340.35693,268.2439 c -1.46171,6.20865 7.30831,-2.98365 0,0 z m -70,151 1,2 z m 69,41 c 4.34939,1.08735 3.17325,0.79331 0,0 z m 10,36 c -4.01982,7.68106 5.03584,3.85766 0,0 z m 17,64 c -1.97826,6.49654 5.27936,1.97982 0,0 z m 8,17 1,2 z m 20,30 c -36.98586,36.98245 14.06726,81.60492 16.09251,122.5898 20.23585,50.49519 57.40433,-17.58553 76.68613,-37.40785 -2.86077,-35.14179 -61.11929,-35.04162 -77.31352,-68.47452 -5.2628,-5.46836 -10.37971,-11.07454 -15.46512,-16.70743 z m 243,0 c -18.36077,38.60034 -84.32798,52.39174 -93.42528,85.56231 23.2153,20.57926 68.05601,92.45345 80.20436,28.65636 8.45423,-33.95657 49.54104,-85.84555 13.22092,-114.21867 z m -75,128 c -35.54744,39.23609 -8.04639,93.83556 -3.56901,138.85648 19.02918,16.33958 15.35018,-46.72077 31.99532,-58.57414 23.86487,-35.37019 -3.41918,-58.57425 -28.42631,-80.28234 z m -99.43408,7.1936 c -47.94779,21.45841 -22.01235,77.76888 -7.25138,112.27346 4.00956,31.70628 24.25193,24.77642 20.82806,-4.26989 4.33581,-33.4627 28.36607,-93.52101 -13.57668,-108.00357 z m -44.56592,2.8064 1,2 z m 62,11 1,2 z m 6,12 1,2 z m 0,26 c 1.35104,4.05312 0.78195,2.34584 0,0 z m -1,5 c 1.35104,4.05312 0.78195,2.34584 0,0 z"
     fill="#131f29"
     id="path1"
     style="display:inline" />
  <path
     d="m 631.91162,191.09156 c 18.92115,17.07763 35.3103,40.48023 42.44531,65.15234 0,1.32 0,2.64 0,4 -0.78762,0.26813 -1.57523,0.53625 -2.38672,0.8125 -22.2052,7.98862 -38.14432,22.57344 -48.98828,43.3125 -6.45503,13.78286 -10.11256,28.27491 -9.53125,43.50391 0.0282,0.81345 0.0564,1.6269 0.0855,2.465 0.12707,3.34332 0.26995,6.68268 0.4858,10.02157 0.3332,5.45641 0.49847,10.5205 -0.66504,15.88452 -3.18838,3.55461 -6.65289,5.16255 -11,7 -1.80213,1.33372 -3.58358,2.69767 -5.3125,4.125 -1.21237,0.99387 -1.21237,0.99387 -2.44922,2.00782 -1.10795,0.92425 -1.10795,0.92425 -2.23828,1.86718 -0.64582,0.53368 -1.29164,1.06735 -1.95703,1.61719 -1.35276,1.12149 -2.69889,2.25095 -4.04297,3.38281 -2.7841,-4.33991 -5.37252,-8.67434 -7.75,-13.25 -3.45039,-6.4104 -7.75909,-12.03964 -12.25,-17.75 -0.66129,-0.89525 -0.66129,-0.89525 -1.33594,-1.80859 -9.36206,-12.25035 -26.50621,-21.12719 -41.66407,-23.19141 -16.35441,-1.3944 -31.33006,3.80868 -44.24999,13.8125 -1.60483,1.37107 -3.18817,2.76765 -4.75,4.1875 -0.83144,0.75024 -1.66289,1.50047 -2.51953,2.27344 -11.12748,10.56341 -18.02681,23.02792 -24.48047,36.72656 -3.16618,-1.38855 -4.19848,-2.24314 -6.5,-5.0625 -4.94259,-6.02694 -11.77557,-10.99047 -18.65747,-14.58813 -2.84253,-2.34937 -2.84253,-2.34937 -3.47607,-5.85425 0.0212,-1.40018 0.0743,-2.80011 0.15307,-4.19824 0.0156,-0.75545 0.0312,-1.5109 0.0473,-2.28925 0.0533,-2.42098 0.14644,-4.83812 0.24568,-7.25763 0.5351,-15.13155 -0.22162,-29.13767 -5.5625,-43.5 -0.25749,-0.70479 -0.51498,-1.40959 -0.78027,-2.13574 -8.52431,-22.48249 -24.09585,-38.37411 -45.66797,-48.27783 -2.62976,-1.22081 -5.2152,-2.52713 -7.80176,-3.83643 0.59376,-4.82426 2.02978,-8.96736 4,-13.375 0.30761,-0.6919 0.61521,-1.38381 0.93213,-2.09668 7.7053,-16.95855 17.75008,-31.55546 30.63525,-45.02832 0.95012,-0.99481 1.89487,-1.99478 2.83398,-3 16.42493,-17.5565 36.93073,-30.37454 58.59863,-40.5 1.14985,-0.54527 2.29969,-1.09054 3.48438,-1.65234 59.93915,-27.13835 124.9043,-5.07687 172.0703,36.5 z"
     fill="#2d4452"
     id="path2"
     style="display:inline" />
  <path
     d="m 336.35693,645.2439 c 0.33,0.66 0.66,1.32 1,2 -1.09734,2.81956 -2.263,5.5546 -3.5,8.3125 -6.13626,14.17651 -10.96307,28.5827 -14.5,43.625 -0.22003,0.91757 -0.44005,1.83514 -0.66675,2.78052 -0.19247,0.8652 -0.38494,1.7304 -0.58325,2.62182 -0.17016,0.7566 -0.34031,1.5132 -0.51562,2.29273 -0.31762,3.2082 -0.28853,5.28337 0.76562,8.36743 2.55252,1.76898 4.75185,3.02001 7.53516,4.30469 0.75325,0.36884 1.5065,0.73768 2.28257,1.1177 2.40538,1.17193 4.82424,2.31235 7.24477,3.45261 1.63445,0.78963 3.26793,1.58128 4.90039,2.375 4.0015,1.94015 8.01537,3.85217 12.03711,5.75 -1.23354,3.3849 -2.58511,6.04077 -4.82812,8.85547 -0.82541,1.0503 -0.82541,1.0503 -1.66749,2.12183 -0.86842,1.09405 -0.86842,1.09405 -1.75439,2.2102 -8.85126,9.83977 -8.85126,9.83977 -12.58594,21.66016 0.94599,3.56733 2.37436,6.65788 4.08594,9.90234 0.73136,1.42012 1.46176,2.84072 2.19141,4.26172 0.60932,1.18022 0.60932,1.18022 1.23095,2.38428 1.4588,2.86126 2.87815,5.74003 4.29248,8.62353 6.24519,12.70391 12.80715,25.13681 19.85938,37.41016 2.60442,4.53775 5.11372,9.11929 7.59033,13.72778 5.87324,10.92863 12.14851,21.57063 18.57373,32.18233 4.36622,7.2207 8.63025,14.4995 12.88672,21.7852 6.31791,10.8151 6.31791,10.8151 12.75,21.5625 14.07314,23.3468 27.57953,47.113 40.25,71.25 0.51844,0.9838 1.03689,1.9676 1.57104,2.9812 0.46898,0.9021 0.93796,1.8042 1.42115,2.7336 0.41363,0.794 0.82725,1.588 1.25342,2.406 0.87939,1.9417 0.87939,1.9417 0.87939,3.9417 -66.99,0 -133.98,0 -203,0 -0.66,-5.94 -1.32,-11.88 -2,-18 -2.25749,-20.2985 -4.62947,-40.5653 -7.42285,-60.7983 -0.40884,-2.9657 -0.81091,-5.9323 -1.20899,-8.8994 -5.41042,-40.3208 -11.19963,-80.64076 -20.36816,-120.3023 -0.21721,-0.95955 -0.43441,-1.91909 -0.6582,-2.90771 -5.72827,-25.14636 -13.22779,-51.37136 -26.87305,-73.43995 -1.46875,-2.65234 -1.46875,-2.65234 -1.46875,-5.65234 10.63985,-5.37095 21.29483,-10.70181 32.0625,-15.8125 11.86035,-5.63145 23.64657,-11.41252 35.4375,-17.1875 14.26632,-6.98568 28.53998,-13.94916 42.8916,-20.7583 2.99548,-1.42596 5.98574,-2.86257 8.97559,-4.30029 1.06621,-0.51216 2.13243,-1.02432 3.23096,-1.55201 2.04583,-0.98298 4.09111,-1.96712 6.13574,-2.95263 1.36149,-0.65319 1.36149,-0.65319 2.75049,-1.31958 0.80147,-0.38559 1.60294,-0.77118 2.42871,-1.16846 2.08691,-0.94873 2.08691,-0.94873 5.08691,-1.94873 z"
     fill="#2a404e"
     id="path3"
     style="display:inline;fill:#1d2223;fill-opacity:1" />
  <path
     d="m 695.35693,645.2439 c 6.04564,1.79512 11.66375,4.48636 17.375,7.125 1.61673,0.74468 1.61673,0.74468 3.26611,1.50439 7.75759,3.59052 15.42825,7.31684 23.04492,11.19532 14.16894,7.19658 28.39792,14.25855 42.75391,21.07422 10.01917,4.76946 19.93239,9.74616 29.84375,14.73486 3.94351,1.98345 7.89228,3.9563 11.84131,5.92871 1.21097,0.60541 2.42191,1.21087 3.63281,1.81641 1.06992,0.53496 2.13985,1.06992 3.24219,1.62109 2,1 4,2 6,3 -0.56085,4.00405 -1.75763,6.45283 -4.0625,9.75 -32.23404,49.79241 -37.25601,120.95786 -44.88034,178.3431 -0.68571,5.1558 -1.39,10.308 -2.11966,15.4577 -3.90294,28.4101 -6.17017,56.8535 -8.9375,85.4492 -68.64,0 -137.28,0 -208,0 1.92977,-4.8244 4.14277,-9.2897 6.5625,-13.875 0.67035,-1.2707 0.67035,-1.2707 1.35425,-2.5671 3.34836,-6.291 6.89495,-12.4225 10.6145,-18.4993 2.4245,-3.9618 4.77139,-7.9674 7.11938,-11.9749 6.04812,-10.3129 12.31134,-20.4611 18.73658,-30.5422 2.99994,-4.7274 5.96072,-9.4793 8.92529,-14.229 0.62004,-0.9925 1.24008,-1.985 1.87891,-3.0076 3.00081,-4.8041 5.99911,-9.6098 8.99388,-14.4177 1.05263,-1.6897 2.10591,-3.3789 3.15919,-5.0681 1.33334,-2.1384 2.66557,-4.2776 3.99658,-6.4175 0.59644,-0.9562 1.19287,-1.9125 1.80738,-2.8977 0.52771,-0.8475 1.05542,-1.695 1.59912,-2.5681 1.25244,-1.9358 1.25244,-1.9358 2.25244,-2.9358 1.44169,-0.1077 2.88858,-0.1468 4.33424,-0.1582 0.93535,-0.01 1.87069,-0.02 2.83439,-0.03 1.03433,-0.01 2.06867,-0.011 3.13435,-0.017 1.08279,-0.01 2.16558,-0.02 3.28119,-0.03 3.59822,-0.032 7.19646,-0.056 10.79474,-0.081 2.48722,-0.021 4.97444,-0.042 7.46165,-0.063 5.88962,-0.05 11.77926,-0.095 17.66893,-0.138 7.3608,-0.054 14.72155,-0.1152 22.08231,-0.176 13.13602,-0.1077 26.27209,-0.2093 39.4082,-0.3066 0.562,-5.3131 0.562,-5.3131 -1.40363,-9.973 -4.01445,-1.5879 -7.85737,-1.4661 -12.13836,-1.4594 -0.96619,-0.01 -1.93238,-0.02 -2.92784,-0.031 -3.19241,-0.03 -6.38452,-0.039 -9.57705,-0.048 -2.21389,-0.017 -4.42778,-0.035 -6.64166,-0.054 -5.82622,-0.048 -11.6524,-0.077 -17.47876,-0.1034 -5.94561,-0.03 -11.89109,-0.076 -17.83661,-0.1215 -11.66529,-0.087 -23.33061,-0.1543 -34.99609,-0.2099 1.18068,-3.0007 2.36449,-5.812 4.03125,-8.57422 0.393,-0.65766 0.78601,-1.31533 1.19092,-1.99292 0.42168,-0.69972 0.84337,-1.39944 1.27783,-2.12036 4.88077,-8.20228 9.56213,-16.49951 14.15527,-24.86572 1.42512,-2.59306 2.85765,-5.18196 4.29004,-7.771 6.27067,-11.3735 12.30927,-22.83712 17.98047,-34.52246 0.71527,-1.4338 1.46299,-2.85187 2.24219,-4.25195 2.44039,-4.45906 3.58149,-7.69139 2.83203,-12.90137 -1.50237,-3.02963 -1.50237,-3.02963 -3.75,-5.875 -0.81672,-1.11566 -1.6331,-2.23156 -2.44922,-3.34766 -0.44521,-0.59699 -0.89042,-1.19399 -1.34912,-1.80908 -2.73812,-3.71253 -5.36428,-7.50503 -8.01416,-11.28076 -1.81069,-2.56379 -3.6242,-5.12556 -5.4375,-7.6875 3.32334,-2.71634 6.82968,-4.48123 10.69922,-6.32031 0.95348,-0.4562 0.95348,-0.4562 1.92622,-0.9216 2.01873,-0.9652 4.04018,-1.92451 6.06206,-2.88309 2.03219,-0.96652 4.06376,-1.9343 6.09419,-2.90451 1.83405,-0.87593 3.67006,-1.74777 5.50615,-2.61942 2.56604,-1.09907 2.56604,-1.09907 3.71216,-2.35107 3.30238,-22.44782 -9.17917,-50.26391 -19,-70 z"
     fill="#2a404e"
     id="path4"
     style="display:inline;fill:#1d2223;fill-opacity:1" />
  <path
     d="m 534.62646,357.70874 c 21.00643,11.81048 32.27687,30.62797 42.73047,51.53516 -0.61743,1.68554 -0.61743,1.68554 -1.66016,3.71875 -0.37858,0.7574 -0.75716,1.51481 -1.14721,2.29516 -0.4142,0.82041 -0.82839,1.64082 -1.25513,2.48609 -6.44913,13.26409 -10.63883,26.60527 -14.0625,40.9375 -0.2297,0.94367 -0.45939,1.88734 -0.69605,2.85962 -4.61242,20.22546 -6.69309,41.03647 -8.75909,61.64556 -0.6213,6.18469 -1.26622,12.36693 -1.90814,18.5495 -0.12752,1.23222 -0.25504,2.46443 -0.38642,3.73398 -10.02655,96.65534 -10.02655,96.65534 -30.1253,120.77384 -8.07074,-3.17065 -11.69161,-13.10736 -15.0127,-20.56495 -5.95735,-14.69304 -8.51446,-30.85145 -10.9873,-46.43505 -0.1077,-0.64906 -0.2154,-1.29811 -0.32636,-1.96683 -2.35178,-14.21589 -3.75366,-28.47163 -5.06408,-42.81619 -1.9504,-21.17954 -4.20151,-42.28526 -7.23456,-63.34198 -0.13999,-0.98456 -0.27997,-1.96911 -0.4242,-2.98349 -2.30729,-16.10369 -4.91418,-32.30927 -9.7008,-47.89151 -0.24243,-0.8076 -0.48485,-1.6152 -0.73462,-2.44727 -2.18967,-7.03418 -4.98192,-13.77452 -8.06323,-20.46289 -0.33355,-0.74121 -0.66709,-1.48242 -1.01075,-2.24609 -0.3022,-0.64776 -0.6044,-1.29551 -0.91577,-1.96289 -1.92174,-6.87649 5.98426,-16.83557 9.16968,-22.60352 2.71856,-4.74528 5.83586,-9.05887 9.30469,-13.27734 0.70769,-0.87012 1.41539,-1.74024 2.14453,-2.63672 13.84015,-16.21552 35.57425,-26.85487 56.125,-16.89844 z"
     fill="#2d4553"
     id="path5"
     style="display:inline" />
  <path
     d="m 186.35693,724.2439 c 4.05816,3.47451 5.97928,7.43426 8.1875,12.1875 0.57984,1.24318 0.57984,1.24318 1.17139,2.51148 29.09116,63.90528 36.13593,139.70352 43.89035,208.73292 0.66927,5.9276 1.3831,11.8495 2.10232,17.7712 0.23424,1.9356 0.46846,3.8711 0.70264,5.8067 0.34449,2.8461 0.68991,5.6922 1.03863,8.5378 0.32126,2.6244 0.63809,5.2493 0.95405,7.8743 0.0967,0.7796 0.19329,1.5593 0.29287,2.3626 0.0874,0.7321 0.17473,1.4642 0.26474,2.2184 0.0768,0.6303 0.15352,1.2605 0.23261,1.9099 0.2098,2.6881 0.1629,5.3909 0.1629,8.0872 -36.96,0 -73.92,0 -112,0 2.29912,-18.3929 2.29912,-18.3929 3.8125,-26.7852 0.25446,-1.439 0.25446,-1.439 0.51405,-2.907 0.55369,-3.1242 1.11337,-6.2473 1.67345,-9.3703 0.39792,-2.235 0.79562,-4.47 1.19312,-6.7051 1.26116,-7.0789 2.53244,-14.1559 3.80688,-21.2324 0.21006,-1.1665 0.42011,-2.333 0.63654,-3.5348 2.90464,-16.119 5.83939,-32.2324 8.79181,-48.3426 0.53925,-2.9456 1.0768,-5.8915 1.61364,-8.8374 19.77559,-108.45863 19.77559,-108.45863 30.95801,-150.2852 z"
     fill="#293f4d"
     id="path6"
     style="display:inline;fill:#1d2223;fill-opacity:1" />
  <path
     d="m 844.35693,725.2439 c 0.66,0 1.32,0 2,0 15.39972,72.12491 15.39972,72.12491 21.35742,104.58252 0.93024,4.94738 1.96488,9.86994 3.01758,14.79248 4.90235,23.0021 9.09118,46.1626 13.44531,69.2734 0.14105,0.7486 0.2821,1.4972 0.42742,2.2684 0.13924,0.739 0.27848,1.478 0.42195,2.2395 0.27677,1.4687 0.55354,2.9375 0.83032,4.4062 0.13576,0.7208 0.27153,1.4415 0.41141,2.1841 3.30341,17.5219 6.73578,35.0186 10.17062,52.5151 0.1643,0.837 0.3286,1.6741 0.49788,2.5364 0.23659,1.2034 0.23659,1.2034 0.47795,2.4311 0.15248,0.7804 0.30497,1.5608 0.46207,2.3649 0.33688,1.6883 0.68591,3.3742 1.04388,5.0582 0.1835,0.8724 0.367,1.7449 0.55606,2.6438 0.16832,0.7823 0.33664,1.5645 0.51006,2.3705 0.37007,2.3334 0.37007,2.3334 0.37007,7.3334 -36.96,0 -73.92,0 -112,0 3.41691,-45.5588 3.41691,-45.5588 5.61322,-62.9155 0.40842,-3.2571 0.79743,-6.516 1.18219,-9.7759 3.21824,-27.2298 6.58407,-54.3508 11.81458,-81.27375 0.55546,-2.89807 1.08577,-5.8006 1.61726,-8.70315 7.2796,-39.69217 16.93679,-78.36353 35.77275,-114.3317 z"
     fill="#293e4c"
     id="path7"
     style="display:inline;fill:#1d2223;fill-opacity:1" />
  <path
     d="m 366.35693,623.2439 c 2.44998,2.44998 2.97349,4.3807 4.09766,7.66406 0.44341,1.27663 0.88764,2.55298 1.33252,3.8291 0.24727,0.71338 0.49455,1.42675 0.74932,2.16175 1.57076,4.48945 3.19788,8.95869 4.81659,13.43103 0.73116,2.02342 1.46228,4.04686 2.19336,6.07031 0.37004,1.02352 0.74009,2.04703 1.12134,3.10156 1.12189,3.10385 2.24247,6.20818 3.36304,9.3125 3.39656,9.40006 6.81676,18.78834 10.34765,28.13881 2.07185,5.50134 4.01386,11.04154 5.91602,16.60338 2.74977,7.98016 5.60073,15.91295 8.55395,23.81982 2.25444,6.07685 4.33154,12.20272 6.29224,18.38062 1.34987,4.17363 2.9138,8.19077 4.63818,12.22534 2.63213,6.22634 4.70922,12.55713 6.70313,19.01172 2.84785,9.16821 2.84785,9.16821 6.09228,18.2002 1.71362,4.48767 3.29469,9.02524 4.90772,13.5498 0.41814,1.17272 0.83628,2.34545 1.26709,3.55371 1.24326,3.4889 2.48477,6.97842 3.72607,10.46802 0.96004,2.69804 1.92092,5.39578 2.88184,8.0935 1.83977,5.16617 3.67649,10.33342 5.51166,15.50127 0.72891,2.0515 1.45857,4.1028 2.18908,6.1538 4.31923,12.1298 8.54075,24.2825 12.52939,36.5257 1.78093,5.4226 3.72701,10.7312 5.88291,16.016 1.05519,2.603 2.01158,5.2319 2.93774,7.8833 0.54189,1.5386 0.54189,1.5386 1.09473,3.1082 0.38511,1.0961 0.77021,2.1922 1.16699,3.3215 4.929,13.9277 10.10758,27.7578 15.33325,41.5767 3.92265,10.3878 7.69326,20.8151 11.35425,31.2983 -8.91,0 -17.82,0 -27,0 -5.64167,-10.0203 -11.11379,-20.0876 -16.375,-30.3125 -5.89465,-11.4215 -12.15015,-22.5869 -18.625,-33.6875 -1.18255,-2.0376 -2.36483,-4.0754 -3.54688,-6.1133 -5.3612,-9.229 -10.7477,-18.4413 -16.26245,-27.5796 -2.76433,-4.5825 -5.48303,-9.1908 -8.19067,-13.8071 -3.07754,-5.2455 -6.17552,-10.4773 -9.3125,-15.6875 -14.46196,-24.05579 -28.5749,-48.25179 -41.37109,-73.24268 -1.19237,-2.32768 -2.39414,-4.65024 -3.59766,-6.97216 -1.6474,-3.19198 -3.20632,-6.41862 -4.74707,-9.66309 -1.05293,-2.09633 -2.22091,-4.10291 -3.40137,-6.12988 -5.41262,-9.90401 -5.41262,-9.90401 -3.98047,-14.83594 2.23313,-4.44888 5.40253,-8.15221 8.64942,-11.89355 3.03347,-3.57523 5.72523,-7.38691 8.44824,-11.2002 0.52827,-0.69867 1.05655,-1.39734 1.60083,-2.11719 2.15756,-2.95158 3.59164,-5.33955 4.6062,-8.875 -1.81869,-5.8611 -8.14228,-7.95448 -13.26221,-10.66699 -3.70627,-1.91562 -7.44835,-3.75544 -11.19482,-5.59082 -1.30822,-0.64657 -2.61617,-1.2937 -3.92383,-1.94141 -3.16805,-1.56769 -6.33977,-3.12776 -9.51367,-4.68359 0.57011,-6.40578 1.65534,-12.32543 3.4375,-18.5 0.25733,-0.89219 0.51466,-1.78439 0.77979,-2.70361 5.93114,-19.80574 14.68512,-47.6988 29.78271,-62.79639 z"
     fill="#2b4250"
     id="path8"
     style="display:inline;fill:#1d2223;fill-opacity:1" />
  <path
     d="m 666.35693,625.2439 c 3.4866,3.17249 5.87937,6.7181 8.25,10.75 0.38841,0.65613 0.77682,1.31227 1.177,1.98828 11.47398,19.65237 25.02837,45.03801 24.573,68.26172 -0.6036,0.32686 -1.20721,0.65372 -1.8291,0.99048 -19.17493,8.51065 -19.17493,8.51065 -35.1709,21.00952 -0.37408,3.86033 0.14462,5.81705 2.45703,8.89844 0.53101,0.71962 1.06203,1.43924 1.60913,2.18066 0.86444,1.13647 0.86444,1.13647 1.74634,2.2959 0.8712,1.18288 0.8712,1.18288 1.76001,2.38965 2.87636,3.89566 5.81149,7.738 8.8103,11.54004 0.51587,0.66725 1.03174,1.3345 1.56324,2.02197 0.97412,1.25621 1.96593,2.49895 2.97705,3.72559 1.32299,1.71337 1.32299,1.71337 3.0769,4.94775 -1.17427,4.84159 -3.45537,9.21652 -5.67578,13.65234 -0.36138,0.72832 -0.72276,1.45663 -1.09509,2.20702 -1.17516,2.36211 -2.35751,4.72051 -3.54163,7.07814 -0.40455,0.80762 -0.80911,1.61524 -1.22592,2.44733 -6.749,13.45332 -13.82886,26.63906 -21.46158,39.61517 -1.06515,1.8255 -2.13025,3.65102 -3.19531,5.47656 -10.4122,17.77784 -21.19229,35.33364 -32.05957,52.83594 -4.04571,6.528 -8.01552,13.0985 -11.95362,19.6919 -3.5967,6.0178 -7.22926,12.013 -10.87573,18.0007 -22.50368,36.9069 -22.50368,36.9069 -42.91577,74.9949 -8.25,0 -16.5,0 -25,0 0.80259,-4.8155 1.64069,-7.8909 3.5,-12.25 2.87625,-6.9255 5.33638,-13.9641 7.75,-21.0625 2.9346,-8.593 6.007,-17.1054 9.3125,-25.5625 4.43573,-11.3794 8.65021,-22.8308 12.8125,-34.3125 0.33455,-0.9227 0.6691,-1.8454 1.01379,-2.7961 1.78078,-4.913 3.55981,-9.8267 5.33826,-14.7405 4.0171,-11.0961 8.05221,-22.1857 12.08545,-33.2759 0.62895,-1.7296 0.62895,-1.7296 1.2706,-3.4942 12.94289,-35.59179 25.91987,-71.17042 39.06607,-106.68768 3.80008,-10.26676 7.58904,-20.53727 11.35083,-30.81812 9.56379,-26.12064 19.13493,-52.24136 29,-78.25 0.45053,-1.1886 0.90105,-2.37719 1.36523,-3.60181 3.00014,-7.87893 3.00014,-7.87893 4.13477,-10.14819 z"
     fill="#2b4250"
     id="path9"
     style="display:inline;fill:#1d2223;fill-opacity:1" />
  <path
     d="m 377.47412,286.82984 c 16.9883,14.07979 25.84261,35.81343 27.88281,57.41406 1.31267,23.81952 -4.22453,46.73544 -20,65 -0.59426,0.68965 -1.18851,1.3793 -1.80078,2.08985 -10.61381,11.44884 -25.88825,17.84253 -41.38452,18.45092 -18.05864,0.16084 -33.59797,-6.24664 -46.8147,-18.54077 -18.19467,-18.58889 -22.45026,-42.06383 -22.36133,-67.1726 0.27383,-18.50309 5.73204,-36.79145 18.36133,-50.8274 0.66645,-0.74636 1.33289,-1.49273 2.01953,-2.26172 23.16757,-24.54707 58.11871,-23.61259 84.09766,-4.15234 z"
     fill="#f8c44a"
     id="path10"
     style="display:inline;fill:#ffeeaa" />
  <path
     d="m 733.91943,286.2439 c 15.21299,12.99941 23.85387,32.25023 25.4375,52 1.4949,25.60068 -2.49284,50.31776 -20.0625,70.1875 -8.09388,8.73991 -18.56562,15.26369 -29.9375,18.8125 -0.66516,0.22301 -1.33031,0.44602 -2.01563,0.67578 -15.26341,4.28191 -31.13933,1.03693 -44.92187,-6.05078 -17.46774,-10.00271 -26.88925,-26.82946 -32.37109,-45.75781 -5.85155,-24.26574 -2.34004,-50.53383 10.30859,-71.86719 10.22376,-15.96854 23.86552,-26.37664 42.375,-31.3125 18.79355,-3.47529 36.18596,2.01945 51.1875,13.3125 z"
     fill="#f8c44a"
     id="path11"
     style="display:inline;fill:#ffeeaa" />
  <path
     d="m 414.35693,392.2439 c 15.17134,5.28409 26.14865,21.33505 33.11377,35.13623 2.75151,5.78651 4.87233,11.78857 6.88623,17.86377 0.32629,0.96317 0.32629,0.96317 0.65918,1.9458 10.74152,32.16769 13.18601,67.33574 16.96582,100.8667 0.10701,0.94917 0.21402,1.89835 0.32428,2.87628 1.70456,15.13996 1.70456,15.13996 2.4472,21.94354 1.50823,13.75927 3.72324,27.36147 6.10352,40.99268 0.14975,0.85839 0.29951,1.71679 0.4538,2.6012 1.80735,10.30804 3.75919,20.55974 6.0462,30.7738 -19.95476,-9.43123 -37.93887,-22.00944 -54.43066,-36.61426 -1.40622,-1.2417 -2.82673,-2.46717 -4.24903,-3.69043 -43.95272,-38.33576 -60.45413,-92.54843 -67.32031,-148.69531 10.98761,3.44867 19.36023,9.53778 28,17 0.68707,0.54141 1.37414,1.08281 2.08203,1.64062 19.55204,15.76907 30.71859,41.68808 38.54297,64.85938 4.18521,12.31775 10.19746,24.0483 21.375,31.5 -7.33532,-39.62713 -21.81845,-76.4397 -50,-106 -0.54527,-0.60844 -1.09055,-1.21687 -1.65234,-1.84375 -8.11413,-8.72913 -18.49109,-14.53999 -29.14234,-19.59351 -5.03101,-2.38843 -5.03101,-2.38843 -7.20532,-4.56274 0.66645,-0.29133 1.33289,-0.58266 2.01953,-0.88281 3.01009,-1.33875 5.99765,-2.71876 8.98047,-4.11719 1.36512,-0.63422 1.36512,-0.63422 2.75781,-1.28125 17.91175,-8.98198 28.51373,-25.31964 37.24219,-42.71875 z"
     fill="#2d4553"
     id="path12" />
  <path
     d="m 619.35693,393.2439 c 0.48469,0.9552 0.96938,1.91039 1.46875,2.89453 11.06723,21.48459 24.96864,35.94229 47.53125,45.10547 0,0.66 0,1.32 0,2 -0.52844,0.26627 -1.05687,0.53254 -1.60132,0.80688 -13.94678,6.94225 -13.94678,6.94225 -26.39868,16.19312 -0.79148,0.67418 -1.58297,1.34836 -2.39844,2.04297 -17.34068,15.07306 -29.74367,33.33945 -39.60156,53.95703 -0.32839,0.67934 -0.65678,1.35867 -0.99512,2.05859 -7.42872,15.68027 -12.57644,33.65365 -14.00488,50.94141 1.97236,-0.36887 1.97236,-0.36887 4,-1 1.08336,-1.78981 1.08336,-1.78981 2,-4 1.89807,-2.62294 3.86155,-5.18895 5.83203,-7.75781 4.86477,-7.27524 8.02217,-15.17241 10.98047,-23.36719 7.51307,-20.17618 17.75843,-36.87502 32.1875,-52.875 0.63937,-0.71285 1.27875,-1.4257 1.9375,-2.16016 7.83813,-8.27148 17.61174,-14.41127 28.0625,-18.83984 0.66,0 1.32,0 2,0 0.33347,7.78323 -0.64454,14.99466 -2.125,22.625 -0.22518,1.17716 -0.45037,2.35431 -0.68237,3.56714 -10.70085,54.69282 -34.74568,99.98093 -79.19263,134.80786 -1.44246,1.16789 -1.44246,1.16789 -2.91406,2.35937 -10.68758,8.49595 -22.23585,15.71585 -34.03907,22.5586 -1.09296,0.63651 -1.09296,0.63651 -2.208,1.28589 -0.60683,0.26272 -1.21365,0.52545 -1.83887,0.79614 -0.66,-0.33 -1.32,-0.66 -2,-1 0.16081,-0.58564 0.32162,-1.17127 0.4873,-1.77466 4.14456,-15.29375 6.98833,-30.48451 9.09229,-46.18188 0.36291,-2.62719 0.7602,-5.24296 1.18994,-7.85987 1.78972,-10.93544 2.97676,-21.91426 4.10547,-32.93359 13.23934,-128.96505 13.23934,-128.96505 46.68506,-157.58496 8.23374,-6.66504 8.23374,-6.66504 12.43994,-6.66504 z"
     fill="#2d4553"
     id="path13" />
  <path
     d="m 504.35693,766.2439 c 7.92,0 15.84,0 24,0 5.3655,28.83256 10.70704,57.66858 15.86255,86.53955 1.6515,9.24296 3.31795,18.48155 5.06714,27.70655 0.43074,2.2904 0.86095,4.5809 1.29113,6.8714 0.39002,2.0578 0.79084,4.1133 1.19227,6.1689 0.22719,1.21 0.45439,2.42 0.68847,3.6667 0.19932,1.0329 0.39864,2.0658 0.60401,3.1299 0.68335,6.7701 -1.90839,12.4113 -4.39698,18.5615 -0.37733,0.9469 -0.75466,1.8937 -1.14343,2.8693 -1.23719,3.1017 -2.48242,6.2002 -3.72766,9.2987 -1.7316,4.3324 -3.45938,8.6663 -5.1875,13 -0.43805,1.0968 -0.87609,2.1936 -1.32741,3.3236 -2.92703,7.3366 -5.81569,14.6872 -8.67259,22.0514 -0.36883,0.9502 -0.73766,1.9003 -1.11766,2.8793 -1.41182,3.6397 -2.82244,7.2798 -4.22685,10.9224 -0.9564,2.48 -1.91695,4.9584 -2.87815,7.4366 -0.27936,0.729 -0.55872,1.458 -0.84655,2.2091 -1.18411,3.0451 -2.35959,5.6333 -4.18079,8.3651 -4.02448,-9.4295 -7.7015,-18.9699 -11.3125,-28.5625 -0.60117,-1.5925 -1.20241,-3.1849 -1.80371,-4.7773 -5.62642,-14.9169 -11.18422,-29.8595 -16.72876,-44.8069 -0.3296,-0.8881 -0.65921,-1.7761 -0.9988,-2.6911 -0.61649,-1.6613 -1.23245,-3.3229 -1.84774,-4.9847 -0.27551,-0.7424 -0.55101,-1.4848 -0.83486,-2.2498 -0.37987,-1.0332 -0.37987,-1.0332 -0.76742,-2.0873 -0.58891,-1.5347 -1.25811,-3.0383 -1.94596,-4.5313 -0.96706,-2.9372 -0.67492,-4.8104 -0.12744,-7.8482 0.20271,-1.1527 0.40541,-2.3054 0.61426,-3.4931 0.2498,-1.3228 0.50084,-2.6454 0.75293,-3.9678 0.27463,-1.4814 0.54903,-2.9628 0.82324,-4.4443 0.99336,-5.3149 2.02305,-10.6226 3.05176,-15.9307 0.80312,-4.1639 1.60456,-8.328 2.40625,-12.49219 0.21313,-1.10571 0.42626,-2.21143 0.64584,-3.35064 1.75581,-9.11508 3.4951,-18.23325 5.22916,-27.35248 0.13356,-0.70223 0.26712,-1.40446 0.40473,-2.12797 1.19975,-6.30819 2.39903,-12.61646 3.59716,-18.92495 5.1652,-27.19377 5.1652,-27.19377 7.84186,-40.37677 z"
     fill="#da4942"
     id="path14" />
  <path
     d="m 523.20459,682.89722 c 4.14482,2.16373 7.18227,4.85448 10.40234,8.20605 0.54358,0.54925 1.08717,1.09849 1.64722,1.66437 1.71067,1.73282 3.40679,3.47909 5.10278,5.22626 1.16703,1.18712 2.33499,2.37333 3.50391,3.55859 2.8429,2.88668 5.67285,5.78551 8.49609,8.69141 -1.36233,3.52295 -2.88695,6.90247 -4.57421,10.28125 -0.74976,1.5024 -0.74976,1.5024 -1.51465,3.03516 -0.52755,1.05058 -1.0551,2.10117 -1.59864,3.18359 -0.53657,1.07121 -1.07314,2.14242 -1.62597,3.24609 -3.76732,7.49376 -7.64467,14.90508 -11.68653,22.25391 -9.57,0 -19.14,0 -29,0 -6.02098,-11.28935 -11.87482,-22.57833 -17.15576,-34.23291 -0.81567,-1.7073 -1.75248,-3.35508 -2.69189,-4.99756 -1.15235,-2.76953 -1.15235,-2.76953 -0.43335,-4.71704 1.36043,-2.17975 2.81205,-3.8423 4.62475,-5.66187 0.66492,-0.66894 1.32983,-1.33788 2.0149,-2.0271 1.05997,-1.04619 1.05997,-1.04619 2.14135,-2.11352 0.7189,-0.71358 1.43779,-1.42715 2.17847,-2.16235 19.16839,-18.82875 19.16839,-18.82875 30.16919,-13.43433 z"
     fill="#dc4a44"
     id="path15" />
  <path
     d="m 516.35693,427.2439 c 0.66,0 1.32,0 2,0 3.11194,24.41649 3.4056,48.57907 3.26428,73.16156 -0.0191,3.96913 -0.0231,7.93821 -0.0267,11.90738 -0.005,4.83381 -0.0197,9.66758 -0.0344,14.50137 -0.002,0.88257 -0.004,1.76513 -0.006,2.67444 -0.0268,9.72582 -0.20938,19.42811 -0.66301,29.14417 -0.0405,0.87078 -0.081,1.74157 -0.12277,2.63874 -0.30433,5.99587 -0.8842,11.87614 -1.97415,17.78484 -0.13857,0.81146 -0.27715,1.62293 -0.41992,2.45898 -0.328,1.91146 -0.67084,3.82037 -1.01758,5.72852 -7.70303,-13.73009 -5.18256,-35.04488 -5.23828,-50.41016 -0.004,-0.967 -0.008,-1.93401 -0.0124,-2.93032 -0.0208,-5.13903 -0.0351,-10.27803 -0.0445,-15.41709 C 512.0525,514.32407 512.0321,510.16215 512,506 c -0.20006,-26.53986 0.74098,-52.44459 4.35693,-78.7561 z"
     fill="#101b25"
     id="path17" />
</svg>
